<?xml version="1.0" encoding="UTF-8"?>
<svg version="1.1" xmlns="http://www.w3.org/2000/svg" width="241" height="209">
<path d="M0 0 C79.53 0 159.06 0 241 0 C241 68.97 241 137.94 241 209 C161.47 209 81.94 209 0 209 C0 140.03 0 71.06 0 0 Z " fill="#FDFCFC" transform="translate(0,0)"/>
<path d="M0 0 C4.13754959 4.7286281 7.07474427 10.07554264 10.1875 15.5 C11.42665269 17.64217625 12.6662573 19.78409113 13.90625 21.92578125 C14.89238281 23.63241943 14.89238281 23.63241943 15.8984375 25.37353516 C19.25986414 31.18199941 22.65864652 36.96865726 26.05484009 42.75683594 C27.17086971 44.659153 28.28609094 46.56194186 29.40112305 48.46484375 C33.00171316 54.64250716 33.00171316 54.64250716 36.7199707 60.74926758 C38 63 38 63 38 65 C13.45748289 76.85641775 -12.1820583 85.9202272 -38.0625 94.375 C-38.80713501 94.62023407 -39.55177002 94.86546814 -40.31896973 95.11813354 C-42.40915207 95.80368567 -44.50251844 96.47820482 -46.59765625 97.1484375 C-47.78883057 97.53177246 -48.98000488 97.91510742 -50.20727539 98.31005859 C-53 99 -53 99 -55 98 C-48.67497266 86.29395396 -42.27186638 74.64221749 -35.64135742 63.10620117 C-31.73528725 56.30478407 -27.88820618 49.47191678 -24.0625 42.625 C-19.35275209 34.19727091 -14.62704044 25.77896488 -9.875 17.375 C-9.34269775 16.43350098 -8.81039551 15.49200195 -8.26196289 14.52197266 C-5.51936918 9.67474117 -2.76744015 4.83308926 0 0 Z " fill="#191919" transform="translate(117,0)"/>
<path d="M0 0 C0.99 0.495 0.99 0.495 2 1 C-1.41057132 4.43553609 -4.8246019 7.86758565 -8.24169922 11.29663086 C-9.40050319 12.46042274 -10.55840322 13.62511549 -11.71533203 14.79077148 C-23.12409317 26.28334806 -23.12409317 26.28334806 -29.28271484 31.5300293 C-32.04066152 33.89079087 -34.66519258 36.39186992 -37.3125 38.875 C-42.10995628 43.33826707 -47.03162373 47.56974429 -52.14453125 51.671875 C-54.77189366 53.81402 -57.33375009 56.01110745 -59.88842773 58.23828125 C-67.63592106 64.9826196 -75.688227 71.25290586 -83.90039062 77.41943359 C-85.88353761 78.9123282 -87.85712982 80.41689763 -89.828125 81.92578125 C-122.44228441 106.79734427 -157.30175013 127.81886417 -193.82470703 146.38183594 C-196.02471226 147.50298269 -198.21799827 148.63737544 -200.40576172 149.78222656 C-201.48744629 150.34135742 -202.56913086 150.90048828 -203.68359375 151.4765625 C-205.14430298 152.23960693 -205.14430298 152.23960693 -206.63452148 153.01806641 C-207.41512939 153.34210449 -208.1957373 153.66614258 -209 154 C-209.66 153.67 -210.32 153.34 -211 153 C-210.09641702 151.44918213 -209.19275302 149.89841146 -208.2890625 148.34765625 C-207.70825928 147.35080811 -207.12745605 146.35395996 -206.52905273 145.3269043 C-205.2541825 143.1412023 -203.97763756 140.95647631 -202.69946289 138.77270508 C-199.77488941 133.77436323 -196.86010388 128.7732055 -194.01953125 123.7265625 C-193.35800049 122.56435181 -193.35800049 122.56435181 -192.68310547 121.37866211 C-191.87402008 119.95538862 -191.07428749 118.52674269 -190.28564453 117.09204102 C-186.59095389 110.64147456 -182.03344192 108.92419171 -175.41625977 106.35058594 C-150.66794764 96.71503762 -126.82297788 84.53606867 -104 71 C-103.13487793 70.4942041 -102.26975586 69.9884082 -101.37841797 69.46728516 C-88.15863015 61.72570286 -75.37005234 53.36693238 -62.625 44.875 C-61.50032822 44.12626114 -61.50032822 44.12626114 -60.35293579 43.36239624 C-46.00596319 33.79624035 -31.85797511 23.9512944 -18 13.6875 C-17.24589844 13.13255859 -16.49179688 12.57761719 -15.71484375 12.00585938 C-10.40963802 8.08837899 -5.18878404 4.07022081 0 0 Z " fill="#C93404" transform="translate(211,54)"/>
<path d="M0 0 C2.86976458 2.55175183 4.57071417 5.44610187 6.484375 8.7578125 C6.8167215 9.32935059 7.14906799 9.90088867 7.4914856 10.48974609 C8.20771463 11.72233883 8.92188937 12.9561271 9.63421631 14.190979 C11.53575812 17.48697787 13.45228534 20.77425137 15.3671875 24.0625 C15.75605133 24.73113068 16.14491516 25.39976135 16.54556274 26.08865356 C20.26204602 32.47056293 24.05972685 38.80162536 27.875 45.125 C34.03640867 55.34894752 40.06304834 65.64427767 46 76 C41.53540425 77.41319599 38.36966106 75.99268985 34.125 74.4375 C16.74506574 68.38347472 -0.87298862 64.11260122 -19 61 C-19.68497559 60.88140625 -20.36995117 60.7628125 -21.07568359 60.640625 C-24.38033391 60.0713543 -27.68743409 59.5212319 -31 59 C-28.80408893 51.7204044 -25.78683609 45.2211053 -22.25 38.5 C-21.69159424 37.43080322 -21.13318848 36.36160645 -20.55786133 35.26000977 C-14.18578614 23.2187973 -7.14943483 11.59267066 0 0 Z " fill="#1A1A1A" transform="translate(194,131)"/>
<path d="M0 0 C0.99 0.495 0.99 0.495 2 1 C-28.81085878 25.2200142 -62.01129562 45.41336411 -97 63 C-98.43931885 63.73065674 -98.43931885 63.73065674 -99.90771484 64.47607422 C-115.39760419 72.30459251 -131.3798943 78.70366687 -147.57299805 84.90254211 C-152.07733917 86.62857004 -156.53835157 88.44140452 -160.97338867 90.33813477 C-163 91 -163 91 -167 91 C-165.24218179 85.23396995 -162.85470067 79.79572868 -160.375 74.3125 C-159.97410156 73.36310547 -159.57320312 72.41371094 -159.16015625 71.43554688 C-155.63470178 63.72429739 -155.63470178 63.72429739 -151.2265625 62.0234375 C-149.82559212 61.65123792 -148.41590527 61.31058463 -147 61 C-145.56016664 60.56626548 -144.1226964 60.12462088 -142.6875 59.67578125 C-141.12539262 59.22000637 -139.56287125 58.76564863 -138 58.3125 C-119.03966419 52.70267996 -100.36683521 46.32397219 -82 39 C-81.08879395 38.63712891 -80.17758789 38.27425781 -79.23876953 37.90039062 C-38.3007778 21.57791341 -38.3007778 21.57791341 0 0 Z " fill="#C93505" transform="translate(209,46)"/>
<path d="M0 0 C0 4.32827928 -2.42477629 6.97661276 -4.79296875 10.4296875 C-5.29058212 11.16762543 -5.7881955 11.90556335 -6.30088806 12.66586304 C-7.36913669 14.24937722 -8.44027079 15.83094789 -9.51397705 17.4107666 C-12.30851888 21.52568077 -15.07781736 25.65749623 -17.84765625 29.7890625 C-18.39105652 30.59887573 -18.93445679 31.40868896 -19.49432373 32.24304199 C-25.58854833 41.34207893 -31.38721352 50.59618559 -37 60 C-37.54205078 60.89912109 -38.08410156 61.79824219 -38.64257812 62.72460938 C-49.65807149 81.0336376 -59.44847385 99.8969477 -69 119 C-74.61 118.67 -80.22 118.34 -86 118 C-85.162987 114.651948 -84.51534469 112.91441168 -82.77734375 110.09375 C-82.32552734 109.35624512 -81.87371094 108.61874023 -81.40820312 107.85888672 C-80.92287109 107.0804541 -80.43753906 106.30202148 -79.9375 105.5 C-79.43798828 104.69191895 -78.93847656 103.88383789 -78.42382812 103.05126953 C-74.42031559 96.60530599 -70.28351197 90.26362599 -66 84 C-65.18466279 82.79312616 -64.36957279 81.58608528 -63.5546875 80.37890625 C-52.99033768 64.79884138 -41.79213458 49.67215472 -30 35 C-29.25492188 34.071875 -28.50984375 33.14375 -27.7421875 32.1875 C-18.81721322 21.18323064 -9.54950677 10.46587358 0 0 Z " fill="#C93607" transform="translate(223,70)"/>
<path d="M0 0 C4.22495289 1.7212771 7.31092804 4.71015107 10.6875 7.6875 C15.99416327 12.30741861 21.37231162 16.77178968 27 21 C25.46151535 25.7553162 25.46151535 25.7553162 23 28 C18.9823947 28.88846869 15.03909563 28.85377285 10.93511963 28.78338623 C7.43013557 28.72658457 3.92672206 28.78782852 0.421875 28.8359375 C-0.28810638 28.84295685 -0.99808777 28.8499762 -1.72958374 28.85720825 C-8.4939811 28.9475858 -15.16028072 29.55494299 -21.875 30.375 C-23.46187622 30.56835938 -23.46187622 30.56835938 -25.08081055 30.765625 C-32.10013651 31.66699725 -39.08129428 32.76142748 -46.01708984 34.17333984 C-49.20437387 34.804853 -50.84773969 35.05075344 -54 34 C-53.24460938 33.58492187 -52.48921875 33.16984375 -51.7109375 32.7421875 C-40.18091107 26.28861299 -29.10430552 19.15434542 -18 12 C-16.28125703 10.89582239 -14.56250733 9.79165525 -12.84375 8.6875 C-11.2913873 7.68793374 -9.73928834 6.6879577 -8.1875 5.6875 C-7.47037842 5.22561279 -6.75325684 4.76372559 -6.0144043 4.2878418 C-2.84729808 2.35030418 -2.84729808 2.35030418 0 0 Z " fill="#020202" transform="translate(103,159)"/>
<path d="M0 0 C3.22477898 0.34598332 5.05861582 1.61637503 7.453125 3.72265625 C8.071875 4.26083984 8.690625 4.79902344 9.328125 5.35351562 C9.96234375 5.91748047 10.5965625 6.48144531 11.25 7.0625 C11.8996875 7.63033203 12.549375 8.19816406 13.21875 8.78320312 C14.81799717 10.1825444 16.40974119 11.59045241 18 13 C14.64318975 19.23395639 11.01364732 25.16572915 7 31 C4.24763696 29.72020546 2.01891622 28.33631792 -0.27734375 26.35546875 C-1.17163086 25.58686523 -1.17163086 25.58686523 -2.08398438 24.80273438 C-2.69564453 24.26970703 -3.30730469 23.73667969 -3.9375 23.1875 C-4.54529297 22.66607422 -5.15308594 22.14464844 -5.77929688 21.60742188 C-9.33518821 18.53485558 -12.72086289 15.36624891 -16 12 C-15.01257813 11.30132812 -14.02515625 10.60265625 -13.0078125 9.8828125 C-11.7134704 8.96364202 -10.41920347 8.04436567 -9.125 7.125 C-8.47402344 6.66480469 -7.82304688 6.20460937 -7.15234375 5.73046875 C-6.52714844 5.28574219 -5.90195313 4.84101563 -5.2578125 4.3828125 C-4.6817627 3.97434082 -4.10571289 3.56586914 -3.51220703 3.14501953 C-1.84771607 1.93897192 -1.84771607 1.93897192 0 0 Z " fill="#040404" transform="translate(129,140)"/>
<path d="M0 0 C3.16501619 0.48016271 5.21267989 1.65950991 7.75 3.5625 C8.67039063 4.24505859 8.67039063 4.24505859 9.609375 4.94140625 C10.06828125 5.29074219 10.5271875 5.64007813 11 6 C9.48103632 10.43170173 7.07360191 14.03024076 4.375 17.8125 C3.95476562 18.40998047 3.53453125 19.00746094 3.1015625 19.62304688 C2.07220272 21.08520565 1.0367177 22.54304899 0 24 C-4.06498881 22.62815653 -6.67396561 20.77931541 -9.8125 17.875 C-10.60269531 17.15054688 -11.39289063 16.42609375 -12.20703125 15.6796875 C-12.79871094 15.12539062 -13.39039063 14.57109375 -14 14 C-12.44878481 9.9408321 -9.79818814 7.96336874 -6.4375 5.3125 C-5.44621094 4.52488281 -4.45492187 3.73726563 -3.43359375 2.92578125 C-2.22896484 1.97251953 -2.22896484 1.97251953 -1 1 C-0.67 0.67 -0.34 0.34 0 0 Z " fill="#050505" transform="translate(154,120)"/>
<path d="M0 0 C1.32 0.99 2.64 1.98 4 3 C2.31048495 6.74236667 0.03512584 9.93507609 -2.375 13.25 C-2.76171875 13.80429688 -3.1484375 14.35859375 -3.546875 14.9296875 C-4.7109375 16.515625 -4.7109375 16.515625 -7 19 C-11 19 -11 19 -13.75 16.5 C-14.4925 15.675 -15.235 14.85 -16 14 C-14.08539961 12.22688737 -12.16842507 10.45646638 -10.25 8.6875 C-9.44175781 7.93823242 -9.44175781 7.93823242 -8.6171875 7.17382812 C-5.84396048 4.62043007 -3.07809771 2.18903551 0 0 Z " fill="#080808" transform="translate(180,98)"/>
<path d="M0 0 C0.66 0.33 1.32 0.66 2 1 C-5.90742936 7.13485775 -13.86717819 13.16523004 -22 19 C-22.99 18.34 -23.98 17.68 -25 17 C-24.67 16.34 -24.34 15.68 -24 15 C-24.66 14.67 -25.32 14.34 -26 14 C-25.31897217 13.64695801 -24.63794434 13.29391602 -23.9362793 12.93017578 C-20.85241996 11.33024125 -17.76994754 9.72765268 -14.6875 8.125 C-13.61564453 7.56941406 -12.54378906 7.01382813 -11.43945312 6.44140625 C-9.89741211 5.63896484 -9.89741211 5.63896484 -8.32421875 4.8203125 C-6.9024231 4.08192139 -6.9024231 4.08192139 -5.4519043 3.32861328 C-2.85838436 1.97152513 -2.85838436 1.97152513 0 0 Z " fill="#C7380D" transform="translate(209,46)"/>
<path d="M0 0 C0 3 0 3 -1.21484375 4.4375 C-1.78332031 4.953125 -2.35179687 5.46875 -2.9375 6 C-7.76605044 10.61263965 -11.84131199 15.78818767 -16 21 C-16.74894531 21.93585938 -17.49789062 22.87171875 -18.26953125 23.8359375 C-18.84058594 24.55007812 -19.41164062 25.26421875 -20 26 C-21.32 25.34 -22.64 24.68 -24 24 C-16 16 -8 8 0 0 Z " fill="#141414" transform="translate(212,67)"/>
<path d="M0 0 C0 4.87691653 -3.10885328 8.21656662 -5.75 12.1875 C-6.28882813 13.03248047 -6.82765625 13.87746094 -7.3828125 14.74804688 C-7.91132813 15.54662109 -8.43984375 16.34519531 -8.984375 17.16796875 C-9.70705566 18.27047974 -9.70705566 18.27047974 -10.44433594 19.39526367 C-10.95770508 19.92482666 -11.47107422 20.45438965 -12 21 C-16 21 -16 21 -18 20 C-17.28714844 19.2265625 -16.57429687 18.453125 -15.83984375 17.65625 C-10.48392711 11.83521182 -5.16442 5.99284232 0 0 Z " fill="#C43B16" transform="translate(223,70)"/>
<path d="M0 0 C0.66 0.33 1.32 0.66 2 1 C0.40629329 2.36646148 -1.20032982 3.71787166 -2.8125 5.0625 C-4.15248047 6.19365234 -4.15248047 6.19365234 -5.51953125 7.34765625 C-6.74736328 8.16556641 -6.74736328 8.16556641 -8 9 C-8.99 8.67 -9.98 8.34 -11 8 C-11 7.34 -11 6.68 -11 6 C-9.21385682 4.96953278 -7.42089982 3.95086764 -5.625 2.9375 C-4.62726563 2.36902344 -3.62953125 1.80054688 -2.6015625 1.21484375 C-1.74304688 0.81394531 -0.88453125 0.41304687 0 0 Z " fill="#C44525" transform="translate(209,46)"/>
<path d="M0 0 C0.99 0.33 1.98 0.66 3 1 C1.35 2.65 -0.3 4.3 -2 6 C-2.66 5.67 -3.32 5.34 -4 5 C-2.68 3.35 -1.36 1.7 0 0 Z " fill="#C73E14" transform="translate(26,164)"/>
</svg>
